# xmcd CD database file
#
# Track frame offsets:
#	150
#	12662
#	23552
#	38657
#	50002
#	62200
#	72497
#	88797
#	100687
#	112852
#	126220
#	137577
#	149242
#	161870
#
# Disc length: 2362 seconds
#
# Revision: 0
# Processed by: cddbd v1.4PL0 Copyright (c) Steve Scherf et al.
# Submitted via: Feurio! 1.63 - http://www.feurio.com
#
DISCID=cb09380e
DTITLE=Bobby Bare - Greatest Hits
DYEAR=1900
DGENRE=country
TTITLE0=Come Sundown
TTITLE1=^Dropping Out Of Side
TTITLE2=For The Good Times
TTITLE3=How I God To Memphis
TTITLE4=Just The Outerside Of Nowere
TTITLE5=Lorena
TTITLE6=The Waltress At Mainstreet Cafe
TTITLE7=I'm Her Hoss If I Never Win A Race
TTITLE8=Loving Here Was Ensler
TTITLE9=Mrs, Jones Your Daughter Cried All Night
TTITLE10=Pamela Brown
TTITLE11=Please Don't Tell Me How The Story End
TTITLE12=Traveling Minstrel Man
TTITLE13=Where Have All The Seasons Gone
EXTD=
EXTT0=
EXTT1=
EXTT2=
EXTT3=
EXTT4=
EXTT5=
EXTT6=
EXTT7=
EXTT8=
EXTT9=
EXTT10=
EXTT11=
EXTT12=
EXTT13=
PLAYORDER=
